<?xml version="1.0" encoding="UTF-8"?>
<svg xmlns="http://www.w3.org/2000/svg" version="1.1" viewBox="0 0 15.5 15.3">
  <defs>
    <style>
      .cls-1 {
        fill: #b28a8a;
      }

      .cls-2 {
        fill: #808179;
      }
    </style>
  </defs>
  <!-- Generator: Adobe Illustrator 28.6.0, SVG Export Plug-In . SVG Version: 1.2.0 Build 709)  -->
  <g>
    <g id="Layer_1">
      <path class="cls-1" d="M7.7.5c4,0,7.2,3.2,7.2,7.2s-3.2,7.2-7.2,7.2S.5,11.7.5,7.7,3.8.5,7.7.5Z"/>
      <path class="cls-2" d="M7.7,15.2C3.5,15.2.2,11.8.2,7.7S3.6.2,7.7.2s7.5,3.4,7.5,7.5c.1,4.1-3.3,7.5-7.5,7.5ZM7.7.8C3.9.8.8,3.9.8,7.7s3.1,6.9,6.9,6.9,6.9-3.1,6.9-6.9S11.5.8,7.7.8Z"/>
    </g>
  </g>
</svg>