<?xml version="1.0" encoding="UTF-8"?>
<svg id="Layer_1" xmlns="http://www.w3.org/2000/svg" version="1.1" viewBox="0 0 40 15.5">
  <!-- Generator: Adobe Illustrator 29.2.0, SVG Export Plug-In . SVG Version: 2.1.0 Build 108)  -->
  <defs>
    <style>
      .st0 {
        fill: #fff;
      }

      .st1 {
        fill: #808179;
      }

      .st2 {
        fill: #969696;
      }

      .st3 {
        fill: #a8a8a8;
      }

      .st4 {
        fill: gray;
      }
    </style>
  </defs>
  <g id="Layer_11" data-name="Layer_1">
    <circle class="st0" cx="30.8" cy="7.7" r="5.9"/>
    <path class="st0" d="M30.8,1.5c3.4,0,6.2,2.8,6.2,6.2s-2.8,6.2-6.2,6.2-6.2-2.8-6.2-6.2,2.8-6.2,6.2-6.2h0Z"/>
    <g>
      <path class="st3" d="M30.8,15.2c-4.1,0-7.5-3.4-7.5-7.5S26.7.2,30.8.2s7.5,3.4,7.5,7.5-3.3,7.5-7.5,7.5ZM30.8,2.7c-2.7,0-5,2.2-5,5s2.2,5,5,5,5-2.2,5-5-2.2-5-5-5Z"/>
      <polygon class="st4" points="21.9 6.5 39.8 6.5 39.8 9 21.9 9 21.9 6.5"/>
    </g>
    <g>
      <path class="st2" d="M10.5.5c4,0,7.2,3.2,7.2,7.2s-3.2,7.2-7.2,7.2-7.2-3.2-7.2-7.2S6.6.5,10.5.5Z"/>
      <path class="st1" d="M10.5,15.2c-4.2,0-7.5-3.4-7.5-7.5S6.4.2,10.5.2s7.5,3.4,7.5,7.5c.1,4.1-3.3,7.5-7.5,7.5ZM10.5.8C6.7.8,3.6,3.9,3.6,7.7s3.1,6.9,6.9,6.9,6.9-3.1,6.9-6.9S14.3.8,10.5.8Z"/>
    </g>
  </g>
</svg>