<?xml version="1.0" encoding="UTF-8"?>
<svg xmlns="http://www.w3.org/2000/svg" version="1.1" viewBox="0 0 40 15.5">
  <defs>
    <style>
      .cls-1 {
        fill: #b28a8a;
      }

      .cls-2 {
        fill: #fff;
      }

      .cls-3 {
        fill: #7280a3;
      }

      .cls-4 {
        fill: #808179;
      }
    </style>
  </defs>
  <!-- Generator: Adobe Illustrator 28.6.0, SVG Export Plug-In . SVG Version: 1.2.0 Build 709)  -->
  <g>
    <g id="Layer_1">
      <circle class="cls-2" cx="30.8" cy="7.7" r="5.9"/>
      <path class="cls-2" d="M30.8,1.5c3.4,0,6.2,2.8,6.2,6.2s-2.8,6.2-6.2,6.2-6.2-2.8-6.2-6.2c0-3.4,2.8-6.2,6.2-6.2h0Z"/>
      <g>
        <path class="cls-1" d="M30.8,15.2c-4.1,0-7.5-3.4-7.5-7.5S26.7.2,30.8.2s7.5,3.4,7.5,7.5-3.3,7.5-7.5,7.5ZM30.8,2.7c-2.7,0-5,2.2-5,5s2.2,5,5,5,5-2.2,5-5-2.2-5-5-5Z"/>
        <polygon class="cls-3" points="21.9 6.5 39.8 6.5 39.8 9 21.9 9 21.9 6.5"/>
      </g>
      <g>
        <path class="cls-1" d="M10.5.5c4,0,7.2,3.2,7.2,7.2s-3.2,7.2-7.2,7.2-7.2-3.2-7.2-7.2S6.6.5,10.5.5Z"/>
        <path class="cls-4" d="M10.5,15.2c-4.2,0-7.5-3.4-7.5-7.5S6.4.2,10.5.2s7.5,3.4,7.5,7.5c.1,4.1-3.3,7.5-7.5,7.5ZM10.5.8C6.7.8,3.6,3.9,3.6,7.7s3.1,6.9,6.9,6.9,6.9-3.1,6.9-6.9S14.3.8,10.5.8Z"/>
      </g>
    </g>
  </g>
</svg>