<?xml version="1.0" encoding="utf-8"?>
<!-- Generator: Adobe Illustrator 27.8.1, SVG Export Plug-In . SVG Version: 6.00 Build 0)  -->
<svg version="1.1" id="Layer_1" xmlns="http://www.w3.org/2000/svg" xmlns:xlink="http://www.w3.org/1999/xlink" x="0px" y="0px"
	 viewBox="0 0 34.6 15.7" style="enable-background:new 0 0 34.6 15.7;" xml:space="preserve">
<style type="text/css">
	.st0{fill:#A09400;}
	.st1{fill:#424242;}
	.st2{fill:#FFFFFF;}
	.st3{fill:#C91818;}
	.st4{fill:#142482;}
</style>
<circle class="st0" cx="7.1" cy="7.9" r="6.4"/>
<path class="st1" d="M7.1,14.6c-3.7,0-6.7-3-6.7-6.7s3-6.7,6.7-6.7s6.7,3,6.7,6.7S10.7,14.6,7.1,14.6z M7.1,1.7C3.7,1.7,1,4.5,1,7.8
	c0,3.4,2.8,6.1,6.1,6.1c3.4,0,6.1-2.8,6.1-6.1S10.4,1.7,7.1,1.7z"/>
<circle class="st2" cx="25.5" cy="7.9" r="5.4"/>
<path class="st3" d="M25.3,15.4c-4.1,0-7.5-3.4-7.5-7.5s3.4-7.5,7.5-7.5s7.5,3.4,7.5,7.5S29.5,15.4,25.3,15.4z M25.3,2.9
	c-2.7,0-5,2.2-5,5c0,2.7,2.2,5,5,5s5-2.2,5-5S28.1,2.9,25.3,2.9z"/>
<polygon class="st4" points="16.4,6.6 34.3,6.6 34.3,9.1 16.4,9.1 "/>
</svg>
