<?xml version="1.0" encoding="UTF-8"?>
<svg id="Layer_1" xmlns="http://www.w3.org/2000/svg" version="1.1" viewBox="0 0 34.6 15.7">
  <!-- Generator: Adobe Illustrator 29.6.1, SVG Export Plug-In . SVG Version: 2.1.1 Build 9)  -->
  <defs>
    <style>
      .st0 {
        fill: #fff;
      }

      .st1 {
        fill: #8e8e8e;
      }

      .st2 {
        fill: #eee;
      }
    </style>
  </defs>
  <circle class="st1" cx="7.1" cy="7.9" r="6.4"/>
  <path class="st2" d="M7.1,14.6C3.4,14.6.4,11.6.4,7.9S3.4,1.2,7.1,1.2s6.7,3,6.7,6.7-3.1,6.7-6.7,6.7ZM7.1,1.7C3.7,1.7,1,4.5,1,7.8s2.8,6.1,6.1,6.1,6.1-2.8,6.1-6.1S10.4,1.7,7.1,1.7Z"/>
  <circle class="st0" cx="25.5" cy="7.9" r="5.4"/>
  <path class="st2" d="M25.3,15.4c-4.1,0-7.5-3.4-7.5-7.5S21.2.4,25.3.4s7.5,3.4,7.5,7.5-3.3,7.5-7.5,7.5ZM25.3,2.9c-2.7,0-5,2.2-5,5s2.2,5,5,5,5-2.2,5-5-2.2-5-5-5Z"/>
  <polygon class="st2" points="16.4 6.6 34.3 6.6 34.3 9.1 16.4 9.1 16.4 6.6"/>
</svg>