<?xml version="1.0" encoding="utf-8"?>
<!-- Generator: Adobe Illustrator 27.8.1, SVG Export Plug-In . SVG Version: 6.00 Build 0)  -->
<svg version="1.1" id="Layer_1" xmlns="http://www.w3.org/2000/svg" xmlns:xlink="http://www.w3.org/1999/xlink" x="0px" y="0px"
	 viewBox="0 0 15.5 15.3" style="enable-background:new 0 0 15.5 15.3;" xml:space="preserve">
<style type="text/css">
	.st0{fill:#CCC48B;}
	.st1{fill:#808179;}
</style>
<path class="st0" d="M7.7,0.5c4,0,7.2,3.2,7.2,7.2c0,4-3.2,7.2-7.2,7.2c-4,0-7.2-3.2-7.2-7.2C0.5,3.7,3.8,0.5,7.7,0.5z"/>
<path class="st1" d="M7.7,15.2c-4.2,0-7.5-3.4-7.5-7.5s3.4-7.5,7.5-7.5c4.1,0,7.5,3.4,7.5,7.5C15.3,11.8,11.9,15.2,7.7,15.2z
	 M7.7,0.8c-3.8,0-6.9,3.1-6.9,6.9s3.1,6.9,6.9,6.9c3.8,0,6.9-3.1,6.9-6.9S11.5,0.8,7.7,0.8z"/>
</svg>
