<?xml version="1.0" encoding="utf-8"?>
<!-- Generator: Adobe Illustrator 27.8.1, SVG Export Plug-In . SVG Version: 6.00 Build 0)  -->
<svg version="1.1" id="Layer_1" xmlns="http://www.w3.org/2000/svg" xmlns:xlink="http://www.w3.org/1999/xlink" x="0px" y="0px"
	 viewBox="0 0 24.1 15.5" style="enable-background:new 0 0 24.1 15.5;" xml:space="preserve">
<style type="text/css">
	.st0{fill:#B28A8A;}
</style>
<path class="st0" d="M0.4,6.1c0-0.8,0-1.6,0-2.4c0.1,0,0.1,0,0.2,0c3.9,0,7.8,0,11.6,0c0.1,0,0.1,0,0.2,0c-0.1-0.1-0.1-0.1-0.2-0.1
	c-1.9-0.8-3.8-1.6-5.7-2.5C5.9,0.8,5.3,0.5,4.7,0.2c1.9,0,3.8,0,5.7,0c0.1,0,0.1,0.1,0.2,0.1c2.3,1.1,4.7,2.2,7,3.2
	c0.1,0.1,0.3,0.1,0.4,0.1c1.8,0,3.7,0,5.5,0c0.1,0,0.2,0,0.3,0c0,0.8,0,1.6,0,2.4c-1.9,0-3.9,0-5.8,0c-0.1,0-0.2,0-0.3,0.1
	c-1.9,0.9-3.9,1.9-5.8,2.8C11.9,9,11.8,9,11.8,9c0,0,0,0,0,0C11.9,9,12,9,12,9c3.8,0,7.7,0,11.5,0c0.1,0,0.2,0,0.3,0
	c0,0.8,0,1.6,0,2.5c-0.1,0-0.1,0-0.2,0c-3.8,0-7.6,0-11.4,0c-0.1,0-0.1,0-0.2,0c0.1,0.1,0.2,0.1,0.3,0.1c1.6,0.7,3.2,1.4,4.8,2.2
	c1,0.5,2.1,0.9,3.1,1.4c-1.9,0-3.7,0-5.6,0c-0.1,0-0.1-0.1-0.2-0.1c-2.5-1.2-5.1-2.4-7.6-3.5c-0.1,0-0.2-0.1-0.4-0.1
	c-1.2,0-2.5,0-3.8,0c-0.8,0-1.5,0-2.3,0c0-0.8,0-1.6,0-2.5c0,0,0.1,0,0.1,0c1.9,0,3.7,0,5.6,0C6.2,9,6.3,9,6.3,9c2-0.9,4-1.9,6-2.8
	c0,0,0.1-0.1,0.2-0.1c-0.1,0-0.1,0-0.2,0C8.4,6.1,4.4,6.1,0.4,6.1z"/>
</svg>
