<?xml version="1.0" encoding="UTF-8"?>
<svg id="Layer_1" xmlns="http://www.w3.org/2000/svg" version="1.1" viewBox="0 0 40.4 16">
  <!-- Generator: Adobe Illustrator 29.6.1, SVG Export Plug-In . SVG Version: 2.1.1 Build 9)  -->
  <defs>
    <style>
      .st0 {
        fill: #8e8e8e;
      }

      .st1 {
        fill: #eee;
      }
    </style>
  </defs>
  <circle class="st0" cx="32.5" cy="8" r="7.2"/>
  <path class="st1" d="M32.5,15.5c-4.1,0-7.5-3.4-7.5-7.5s3.4-7.5,7.5-7.5,7.5,3.4,7.5,7.5-3.3,7.5-7.5,7.5ZM32.5,1.1c-3.8,0-6.9,3.1-6.9,6.9s3.1,6.9,6.9,6.9,6.9-3.1,6.9-6.9-3.1-6.9-6.9-6.9Z"/>
  <path class="st1" d="M.5,6.3v-2.2h11.3q-.1,0-.2,0c-1.8-.9-3.6-1.6-5.3-2.4-.6-.3-1.2-.5-1.8-.8h5.3c.1,0,.1.1.2.1,2.2,1,4.4,2,6.6,3,.1,0,.3,0,.4,0h5.3v2.2h-5.4c-.1,0-.2,0-.3,0-1.8.9-3.6,1.7-5.4,2.6-.1,0-.1.1-.2.1h11.2v2.3h-11c.1.1.2.1.3.1,1.5.7,3,1.3,4.5,2,1,.4,1.9.9,2.9,1.3h-5.3c-.1,0-.1-.1-.2-.1-2.4-1.1-4.8-2.2-7.2-3.3,0,0-.2-.1-.3-.1H.2v-2.3h5.4c0,0,.2,0,.2-.1,1.9-.9,3.8-1.8,5.7-2.6,0,0,.1,0,.2,0h-.1c-3.6.2-7.4.2-11.1.2Z"/>
</svg>