<?xml version="1.0" encoding="utf-8"?>
<!-- Generator: Adobe Illustrator 27.8.1, SVG Export Plug-In . SVG Version: 6.00 Build 0)  -->
<svg version="1.1" id="Layer_1" xmlns="http://www.w3.org/2000/svg" xmlns:xlink="http://www.w3.org/1999/xlink" x="0px" y="0px"
	 viewBox="0 0 40.4 16" style="enable-background:new 0 0 40.4 16;" xml:space="preserve">
<style type="text/css">
	.st0{fill:#CCC48B;}
	.st1{fill:#808179;}
	.st2{fill:#B28A8A;}
</style>
<circle class="st0" cx="32.5" cy="8" r="7.2"/>
<path class="st1" d="M32.5,15.5c-4.1,0-7.5-3.4-7.5-7.5c0-4.1,3.4-7.5,7.5-7.5S40,3.9,40,8C40,12.1,36.7,15.5,32.5,15.5z M32.5,1.1
	c-3.8,0-6.9,3.1-6.9,6.9s3.1,6.9,6.9,6.9c3.8,0,6.9-3.1,6.9-6.9S36.3,1.1,32.5,1.1z"/>
<path class="st2" d="M0.5,6.3c0-0.7,0-1.5,0-2.2c0.1,0,0.1,0,0.2,0c3.6,0,7.3,0,10.9,0c0.1,0,0.1,0,0.2,0c-0.1-0.1-0.1-0.1-0.2-0.1
	C9.8,3.1,8,2.4,6.3,1.6C5.7,1.3,5.1,1.1,4.5,0.8c1.8,0,3.5,0,5.3,0c0.1,0,0.1,0.1,0.2,0.1c2.2,1,4.4,2,6.6,3
	c0.1,0.1,0.3,0.1,0.4,0.1c1.7,0,3.4,0,5.1,0c0.1,0,0.2,0,0.2,0c0,0.7,0,1.5,0,2.2c-1.8,0-3.6,0-5.4,0c-0.1,0-0.2,0-0.3,0.1
	c-1.8,0.9-3.6,1.7-5.4,2.6c-0.1,0-0.1,0.1-0.2,0.1c0,0,0,0,0,0c0.1,0,0.2,0,0.2,0c3.6,0,7.2,0,10.8,0c0.1,0,0.2,0,0.2,0
	c0,0.8,0,1.5,0,2.3c-0.1,0-0.1,0-0.2,0c-3.5,0-7.1,0-10.6,0c-0.1,0-0.1,0-0.2,0c0.1,0.1,0.2,0.1,0.3,0.1c1.5,0.7,3,1.3,4.5,2
	c1,0.4,1.9,0.9,2.9,1.3c-1.8,0-3.5,0-5.3,0c-0.1,0-0.1-0.1-0.2-0.1c-2.4-1.1-4.8-2.2-7.2-3.3c-0.1,0-0.2-0.1-0.3-0.1
	c-1.2,0-2.4,0-3.5,0c-0.7,0-1.4,0-2.2,0c0-0.8,0-1.6,0-2.3c0,0,0,0,0.1,0c1.8,0,3.5,0,5.3,0c0.1,0,0.2,0,0.2-0.1
	c1.9-0.9,3.8-1.8,5.7-2.6c0,0,0.1-0.1,0.2-0.1c-0.1,0-0.1,0-0.1,0C8,6.3,4.2,6.3,0.5,6.3z"/>
</svg>
