<?xml version="1.0" encoding="UTF-8"?>
<svg id="Layer_1" xmlns="http://www.w3.org/2000/svg" version="1.1" viewBox="0 0 24.1 15.5">
  <!-- Generator: Adobe Illustrator 29.6.1, SVG Export Plug-In . SVG Version: 2.1.1 Build 9)  -->
  <defs>
    <style>
      .st0 {
        fill: #eee;
      }
    </style>
  </defs>
  <path class="st0" d="M.4,6.1v-2.4h12q-.1,0-.2,0c-1.9-.8-3.8-1.6-5.7-2.5-.6-.3-1.2-.6-1.8-.9h5.7c.1,0,.1.1.2.1,2.3,1.1,4.7,2.2,7,3.2.1,0,.3,0,.4,0h5.8v2.4h-5.8c-.1,0-.2,0-.3,0-1.9.9-3.9,1.9-5.8,2.8,0,.1,0,.1,0,.1h12v2.5h-11.8c.1.1.2.1.3.1,1.6.7,3.2,1.4,4.8,2.2,1,.5,2.1.9,3.1,1.4h-5.6c-.1,0-.1-.1-.2-.1-2.5-1.2-5.1-2.4-7.6-3.5,0,0-.2-.1-.4-.1H.3v-2.5h5.7c.2,0,.3,0,.3,0,2-.9,4-1.9,6-2.8,0,0,.1,0,.2,0H.4Z"/>
</svg>