<?xml version="1.0" encoding="UTF-8"?>
<svg id="Layer_1" xmlns="http://www.w3.org/2000/svg" version="1.1" viewBox="0 0 40 15.5">
  <!-- Generator: Adobe Illustrator 29.6.1, SVG Export Plug-In . SVG Version: 2.1.1 Build 9)  -->
  <defs>
    <style>
      .st0 {
        fill: #fff;
      }

      .st1 {
        fill: #eee;
      }
    </style>
  </defs>
  <circle class="st0" cx="30.8" cy="7.8" r="5.9"/>
  <path class="st0" d="M30.8,1.6c3.4,0,6.2,2.8,6.2,6.2s-2.8,6.2-6.2,6.2-6.2-2.8-6.2-6.2c0-3.4,2.8-6.2,6.2-6.2h0Z"/>
  <path class="st1" d="M30.8,15.3c-4.1,0-7.5-3.4-7.5-7.5S26.7.3,30.8.3s7.5,3.4,7.5,7.5-3.3,7.5-7.5,7.5ZM30.8,2.8c-2.7,0-5,2.2-5,5s2.2,5,5,5,5-2.2,5-5-2.2-5-5-5Z"/>
  <polygon class="st1" points="21.9 6.6 39.8 6.6 39.8 9.1 21.9 9.1 21.9 6.6"/>
  <path class="st1" d="M.2,6.5v-2h10.1q-.1,0-.2,0c-1.5-.7-3.1-1.4-4.7-2.1-.5-.2-1-.5-1.5-.7h4.7c.1,0,.1.1.2.1,2,.9,3.9,1.8,5.9,2.7.1,0,.2,0,.4,0h4.8v2h-4.8c-.1,0-.2,0-.3,0-1.6.8-3.2,1.5-4.8,2.3h-.1c-.1.1,0,.1.1.1h9.9v2.1h-9.8c.1.1.2.1.2.1,1.4.6,2.7,1.2,4.1,1.8.9.4,1.7.8,2.6,1.2h-4.8c-2.1-1.1-4.3-2.1-6.4-3.1,0,0-.2-.1-.3-.1H.5v-2.1h.1c1.3.1,2.8.1,4.4.1h.2c1.7-.8,3.4-1.6,5-2.4,0,0,.1,0,.1,0H.2Z"/>
</svg>