<?xml version="1.0" encoding="utf-8"?>
<!-- Generator: Adobe Illustrator 27.8.1, SVG Export Plug-In . SVG Version: 6.00 Build 0)  -->
<svg version="1.1" id="Layer_1" xmlns="http://www.w3.org/2000/svg" xmlns:xlink="http://www.w3.org/1999/xlink" x="0px" y="0px"
	 viewBox="0 0 40 15.5" style="enable-background:new 0 0 40 15.5;" xml:space="preserve">
<style type="text/css">
	.st0{fill:#FFFFFF;}
	.st1{fill:#B28A8A;}
	.st2{fill:#7280A3;}
</style>
<circle class="st0" cx="30.8" cy="7.8" r="5.9"/>
<path class="st0" d="M30.8,1.6c3.4,0,6.2,2.8,6.2,6.2S34.2,14,30.8,14s-6.2-2.8-6.2-6.2C24.6,4.4,27.4,1.6,30.8,1.6L30.8,1.6z"/>
<path class="st1" d="M30.8,15.3c-4.1,0-7.5-3.4-7.5-7.5s3.4-7.5,7.5-7.5s7.5,3.4,7.5,7.5C38.3,12,35,15.3,30.8,15.3z M30.8,2.8
	c-2.7,0-5,2.2-5,5c0,2.7,2.2,5,5,5c2.7,0,5-2.2,5-5C35.8,5.1,33.6,2.8,30.8,2.8z"/>
<polygon class="st2" points="21.9,6.6 39.8,6.6 39.8,9.1 21.9,9.1 "/>
<path class="st1" d="M0.2,6.5c0-0.7,0-1.3,0-2c0.1,0,0.1,0,0.2,0c3.3,0,6.5,0,9.7,0c0.1,0,0.1,0,0.2,0c-0.1-0.1-0.1-0.1-0.2-0.1
	C8.6,3.7,7,3,5.4,2.3c-0.5-0.2-1-0.5-1.5-0.7c1.6,0,3.2,0,4.7,0c0.1,0,0.1,0.1,0.2,0.1c2,0.9,3.9,1.8,5.9,2.7c0.1,0,0.2,0.1,0.4,0.1
	c1.5,0,3.1,0,4.6,0c0.1,0,0.1,0,0.2,0c0,0.7,0,1.3,0,2c-1.6,0-3.2,0-4.8,0c-0.1,0-0.2,0-0.3,0.1c-1.6,0.8-3.2,1.5-4.8,2.3L9.9,9l0,0
	c-0.1,0,0,0,0.1,0c3.2,0,6.4,0,9.7,0c0.1,0,0.1,0,0.2,0c0,0.7,0,1.4,0,2.1h-0.1c-3.2,0-6.3,0-9.5,0c0,0-0.1,0-0.2,0
	c0.1,0.1,0.2,0.1,0.2,0.1c1.4,0.6,2.7,1.2,4.1,1.8c0.9,0.4,1.7,0.8,2.6,1.2c-1.6,0-3.1,0-4.7,0l-0.1-0.1c-2.1-1-4.3-2-6.4-3
	c-0.1,0-0.2-0.1-0.3-0.1c-1,0-2.1,0-3.1,0c-0.6,0-1.3,0-1.9,0c0-0.7,0-1.4,0-2.1c0,0,0,0,0.1,0C1.9,9,3.4,9,5,9c0.1,0,0.1,0,0.2,0
	c1.7-0.8,3.4-1.6,5-2.4c0,0,0.1,0,0.1-0.1c-0.1,0-0.1,0-0.1,0C6.9,6.5,3.6,6.5,0.2,6.5z"/>
</svg>
